<svg xmlns="http://www.w3.org/2000/svg" xml:space="preserve" width="122.88" height="95.089"><path d="M66.605 9.676c-.791-.791-1.718-1.181-2.792-1.181-1.073 0-2.013.39-2.791 1.181l-4.255 4.241a28.269 28.269 0 0 0-3.61-1.96 37.552 37.552 0 0 0-3.852-1.502V3.931c0-1.1-.375-2.026-1.141-2.791C47.401.375 46.475 0 45.374 0h-8.187c-1.047 0-1.958.375-2.75 1.14-.778.765-1.168 1.691-1.168 2.791v5.973a29.527 29.527 0 0 0-3.973 1.221 30.685 30.685 0 0 0-3.663 1.691l-4.711-4.644c-.738-.778-1.637-1.181-2.724-1.181-1.075 0-2 .403-2.792 1.181l-5.73 5.745c-.791.791-1.181 1.718-1.181 2.79 0 1.074.39 2.014 1.181 2.792l4.242 4.255a28.306 28.306 0 0 0-1.959 3.608 37.764 37.764 0 0 0-1.504 3.853H3.933c-1.102 0-2.028.375-2.792 1.14C.376 33.121 0 34.047 0 35.148v8.187c0 1.045.376 1.959 1.14 2.751.764.777 1.691 1.167 2.792 1.167h5.971a29.502 29.502 0 0 0 1.222 3.971 36.546 36.546 0 0 0 1.691 3.744l-4.644 4.63c-.779.739-1.181 1.638-1.181 2.726 0 1.073.402 2 1.181 2.792l5.745 5.811a3.946 3.946 0 0 0 2.792 1.102c1.072 0 2.011-.363 2.791-1.102l4.254-4.321a28.647 28.647 0 0 0 3.61 1.96 37.874 37.874 0 0 0 3.852 1.502v6.523c0 1.1.376 2.025 1.14 2.789.765.767 1.692 1.143 2.792 1.143h8.186c1.047 0 1.959-.376 2.751-1.143.777-.764 1.167-1.689 1.167-2.789v-5.973a29.285 29.285 0 0 0 3.972-1.222 36.025 36.025 0 0 0 3.744-1.691l4.63 4.645c.739.778 1.65 1.181 2.753 1.181 1.112 0 2.025-.402 2.765-1.181l5.811-5.744c.738-.793 1.102-1.719 1.102-2.792s-.363-2.013-1.102-2.791l-4.321-4.255a28.45 28.45 0 0 0 1.96-3.609 38.11 38.11 0 0 0 1.502-3.852h6.523c1.1 0 2.025-.378 2.789-1.141.766-.766 1.142-1.691 1.142-2.792v-8.186c0-1.047-.376-1.958-1.142-2.752-.764-.778-1.689-1.167-2.789-1.167h-5.973a33.012 33.012 0 0 0-1.222-3.931 29.398 29.398 0 0 0-1.691-3.706l4.645-4.709c.778-.738 1.181-1.638 1.181-2.724 0-1.075-.402-2-1.181-2.792l-5.745-5.731zm45.313 43.973c-.506-.355-1.044-.479-1.627-.376a2.07 2.07 0 0 0-1.401.904l-1.908 2.702a15.645 15.645 0 0 0-2.144-.721 20.032 20.032 0 0 0-2.231-.451l-.616-3.538a2.086 2.086 0 0 0-.884-1.406 2.075 2.075 0 0 0-1.621-.354l-4.441.774c-.566.099-1.025.39-1.383.879a2.06 2.06 0 0 0-.369 1.625l.564 3.238c-.713.303-1.395.648-2.037 1.038-.654.392-1.263.812-1.828 1.264l-2.995-2.073a1.995 1.995 0 0 0-1.59-.383c-.583.103-1.046.407-1.402.904l-2.564 3.659c-.354.504-.479 1.044-.377 1.623.102.585.402 1.057.905 1.404l2.703 1.907a15.466 15.466 0 0 0-.721 2.144 20.083 20.083 0 0 0-.452 2.231l-3.538.616a2.086 2.086 0 0 0-1.406.884c-.344.486-.458 1.025-.354 1.621l.773 4.441c.099.566.388 1.026.88 1.383.487.35 1.027.474 1.624.369l3.239-.564c.304.713.648 1.394 1.038 2.039.392.652.815 1.274 1.272 1.869l-2.081 2.952a1.987 1.987 0 0 0-.383 1.59c.102.583.406 1.047.904 1.402l3.665 2.607a2.173 2.173 0 0 0 1.618.334 2.159 2.159 0 0 0 1.41-.862l1.899-2.746c.688.293 1.403.528 2.144.721.738.194 1.484.343 2.23.45l.618 3.54c.104.597.396 1.063.883 1.404.486.344 1.025.46 1.621.356l4.439-.775c.569-.1 1.028-.389 1.386-.879a2.062 2.062 0 0 0 .368-1.624l-.565-3.241a15.93 15.93 0 0 0 2.04-1.037 20.532 20.532 0 0 0 1.87-1.27l2.951 2.081a2.004 2.004 0 0 0 1.604.378 2.006 2.006 0 0 0 1.388-.901l2.609-3.665c.324-.5.435-1.036.332-1.618a2.156 2.156 0 0 0-.86-1.41l-2.748-1.899c.294-.688.528-1.403.722-2.144.194-.738.342-1.484.452-2.232l3.537-.616a2.075 2.075 0 0 0 1.405-.883 2.078 2.078 0 0 0 .355-1.621l-.775-4.441c-.099-.567-.389-1.025-.879-1.384a2.063 2.063 0 0 0-1.624-.369l-3.239.565a18.042 18.042 0 0 0-1.035-2.017 16.332 16.332 0 0 0-1.267-1.85l2.074-2.995c.353-.475.484-.998.38-1.59-.101-.583-.405-1.045-.904-1.401l-3.653-2.562zM99.16 64.929a7.835 7.835 0 0 1 3.147.075 8.136 8.136 0 0 1 2.777 1.231 8.059 8.059 0 0 1 2.101 2.198c.573.889.95 1.865 1.139 2.936a7.887 7.887 0 0 1-.076 3.15 8.101 8.101 0 0 1-1.233 2.776 8.077 8.077 0 0 1-2.196 2.1 7.86 7.86 0 0 1-2.937 1.139 7.896 7.896 0 0 1-3.148-.077 8.106 8.106 0 0 1-2.777-1.232 8.092 8.092 0 0 1-2.1-2.196 7.848 7.848 0 0 1-1.138-2.937 7.842 7.842 0 0 1 .075-3.148 8.167 8.167 0 0 1 1.231-2.778 8.126 8.126 0 0 1 2.198-2.099 7.868 7.868 0 0 1 2.937-1.138zM40.262 24.224c2.201 0 4.28.417 6.252 1.248 1.961.846 3.666 1.986 5.115 3.421 1.435 1.449 2.575 3.156 3.421 5.113a15.9 15.9 0 0 1 1.248 6.254c0 2.201-.415 4.282-1.248 6.254-.846 1.959-1.986 3.666-3.421 5.115-1.449 1.436-3.154 2.575-5.115 3.421-1.972.833-4.051 1.248-6.252 1.248s-4.282-.415-6.255-1.248c-1.958-.846-3.664-1.985-5.112-3.421-1.437-1.449-2.577-3.155-3.423-5.115a15.929 15.929 0 0 1-1.248-6.254c0-2.2.417-4.281 1.248-6.254.846-1.958 1.986-3.664 3.423-5.113 1.448-1.435 3.154-2.576 5.112-3.421a15.933 15.933 0 0 1 6.255-1.248z"/></svg>